<svg width="50" height="51" viewBox="0 0 50 51" fill="none" xmlns="http://www.w3.org/2000/svg">
<path fill-rule="evenodd" clip-rule="evenodd" d="M4 0C1.79086 0 0 1.79086 0 4V46.0312C0 48.2403 1.79086 50.0312 4 50.0312H46C48.2091 50.0312 50 48.2403 50 46.0312V4C50 1.79086 48.2091 0 46 0H4ZM18.856 6.14122C16.5185 6.14122 14.6235 8.03619 14.6235 10.3738C14.6235 12.7113 16.5185 14.6063 18.856 14.6063H36.8956C39.2331 14.6063 41.1281 12.7113 41.1281 10.3738C41.1281 8.03619 39.2332 6.14122 36.8956 6.14122H18.856ZM12.0683 20.8069C9.73074 20.8069 7.83577 22.7019 7.83577 25.0394C7.83577 27.377 9.73074 29.272 12.0683 29.272H30.7543C33.0918 29.272 34.9868 27.377 34.9868 25.0394C34.9868 22.7019 33.0918 20.8069 30.7543 20.8069H12.0683ZM16.5089 39.7051C16.5089 37.3675 18.4039 35.4726 20.7415 35.4726H38.35C40.6876 35.4726 42.5825 37.3675 42.5825 39.7051C42.5825 42.0427 40.6876 43.9376 38.35 43.9376H20.7415C18.4039 43.9376 16.5089 42.0427 16.5089 39.7051Z" fill="#00FFFF"/>
</svg>
