<svg width="259" height="47" viewBox="0 0 259 47" fill="none" xmlns="http://www.w3.org/2000/svg">
<g clip-path="url(#clip0_5_27995)">
<path d="M32.7337 46.9999C32.644 46.9775 32.5319 46.9326 32.4423 46.9102C30.5814 46.5961 29.281 45.1603 29.1689 43.2534C29.1465 43.0291 29.1465 42.7823 29.1465 42.5579C29.1465 29.8601 29.1465 17.1847 29.1465 4.48681C29.1465 3.92596 29.1913 3.38753 29.3034 2.82667C29.4155 2.17607 29.7518 1.61522 30.2675 1.18896C31.4109 0.246719 32.6889 -0.201968 34.1686 0.20185C34.9533 0.40376 35.5363 0.897316 36.0295 1.50304C37.5989 3.3651 39.1908 5.22715 40.7602 7.06677C47.7554 15.3002 54.7505 23.5336 61.7681 31.767C61.925 31.9465 62.0596 32.1035 62.2165 32.283C62.2613 32.283 62.2838 32.2606 62.3286 32.2606C62.3286 32.0587 62.3286 31.8567 62.3286 31.6548C62.3286 22.4792 62.3286 13.3035 62.3286 4.12786C62.3286 3.11832 62.6201 2.22094 63.2927 1.45817C64.3913 0.224285 66.028 -0.179534 67.5525 0.358891C69.0323 0.874881 70.0636 2.28825 70.1309 3.92596C70.1309 4.083 70.1309 4.24004 70.1309 4.41951C70.1309 17.1847 70.1309 29.9498 70.1309 42.6925C70.1309 43.1637 70.1085 43.6572 69.9964 44.1283C69.6376 45.6987 68.5166 46.5064 67.0145 46.8878C66.8351 46.9326 66.6782 46.9775 66.4988 46.9999C66.2746 46.9999 66.0728 46.9999 65.8486 46.9999C65.7813 46.9775 65.7141 46.9326 65.6468 46.9102C64.5931 46.798 63.7859 46.2372 63.1133 45.452C57.7997 39.1928 52.4636 32.9112 47.1276 26.652C43.8766 22.8157 40.6033 18.9794 37.3299 15.1431C37.2178 15.0085 37.1505 14.8291 36.9039 14.8066C36.9039 15.0534 36.9039 15.2553 36.9039 15.4797C36.9039 24.431 36.9039 33.4047 36.9039 42.356C36.9039 42.5804 36.9039 42.8271 36.9039 43.0515C36.9488 45.2052 35.1327 46.7532 33.6081 46.8878C33.5184 46.8878 33.4512 46.9551 33.3615 46.9775C33.1597 46.9999 32.9579 46.9999 32.7337 46.9999Z" fill="white"/>
<path d="M167.435 31.3184C167.435 31.5877 167.435 31.812 167.435 32.0139C167.435 35.6931 167.435 39.3724 167.435 43.0292C167.435 44.622 166.695 45.811 165.305 46.4841C162.548 47.8526 159.745 45.7662 159.678 43.2087C159.678 43.0292 159.678 42.8497 159.678 42.6702C159.678 29.8826 159.678 17.0726 159.678 4.28503C159.678 3.90365 159.678 3.49983 159.767 3.11844C160.126 1.391 161.651 0.157108 163.422 0.0898048C163.512 0.0898048 163.601 0.0898048 163.691 0.0898048C170.238 0.0898048 176.785 0.0673704 183.309 0.0898048C189.676 0.112239 195.528 4.15042 197.725 10.118C200.326 17.1399 197.748 24.9022 191.425 28.8955C191.246 29.0077 191.066 29.1199 190.842 29.2545C190.977 29.4564 191.066 29.6359 191.178 29.8153C193.465 33.4721 195.752 37.1514 198.061 40.7857C198.779 41.9075 198.913 43.074 198.487 44.3304C197.994 45.7662 196.649 46.7757 195.124 46.8655C193.51 46.9552 192.299 46.327 191.425 44.9361C188.69 40.5614 185.954 36.1867 183.219 31.812C182.973 31.4082 182.726 31.2511 182.233 31.2736C177.547 31.296 172.839 31.296 168.153 31.296C167.906 31.3184 167.704 31.3184 167.435 31.3184ZM167.458 23.4888C167.682 23.4888 167.861 23.4888 168.041 23.4888C173.063 23.4888 178.085 23.4888 183.107 23.4888C183.735 23.4888 184.363 23.4215 184.968 23.2869C189.228 22.255 191.806 17.8354 190.618 13.5953C189.699 10.275 186.672 7.94183 183.107 7.9194C178.04 7.89696 172.951 7.9194 167.884 7.9194C167.749 7.9194 167.615 7.94183 167.458 7.96427C167.458 13.1242 167.458 18.2616 167.458 23.4888Z" fill="white"/>
<path d="M239.494 20.3479C239.651 20.1236 239.763 19.9666 239.853 19.8095C243.777 13.9317 247.7 8.03148 251.646 2.15367C251.826 1.86202 252.027 1.57038 252.252 1.34603C253.328 0.24675 254.65 -0.179503 256.13 0.24675C257.61 0.673003 258.596 1.63768 258.91 3.16322C259.135 4.2625 258.955 5.31692 258.283 6.28159C256.354 9.13076 254.449 12.0024 252.543 14.874C249.606 19.2935 246.669 23.7131 243.709 28.1102C243.485 28.4467 243.373 28.7833 243.373 29.2095C243.373 33.7188 243.373 38.2057 243.373 42.715C243.373 43.1188 243.373 43.5451 243.283 43.9489C242.835 45.9231 241.041 47.1346 238.911 46.9102C237.23 46.7308 235.593 45.093 235.593 43.1188C235.616 38.4973 235.593 33.8759 235.616 29.2544C235.616 28.8281 235.504 28.4692 235.257 28.1102C230.414 20.8639 225.571 13.6176 220.728 6.39377C219.966 5.27205 219.764 4.08303 220.168 2.80427C220.639 1.30117 221.715 0.426225 223.217 0.157013C224.742 -0.112199 226.042 0.403791 227.006 1.68255C227.41 2.22097 227.746 2.78183 228.127 3.32026C231.782 8.81668 235.459 14.2907 239.113 19.7871C239.203 19.9441 239.315 20.1012 239.494 20.3479Z" fill="white"/>
<path d="M7.86955 23.4888C7.86955 29.9498 7.86955 36.3885 7.86955 42.8496C7.86955 44.0611 7.4884 45.0931 6.56917 45.9231C5.44815 46.9327 4.12535 47.1794 2.71286 46.7308C1.3228 46.2821 0.425987 45.2725 0.134522 43.8143C0.0448407 43.3656 0 42.8945 0 42.4234C0 29.7479 0 17.0501 0 4.37467C0 3.23052 0.291465 2.1761 1.12102 1.32359C2.21962 0.179441 3.92356 -0.246812 5.35847 0.358916C6.90547 1.00951 7.75745 2.19853 7.84713 3.88111C7.84713 4.03815 7.84713 4.19519 7.84713 4.37467C7.86955 10.746 7.86955 17.1174 7.86955 23.4888Z" fill="white"/>
<path fill-rule="evenodd" clip-rule="evenodd" d="M95.475 0C93.2659 0 91.475 1.79086 91.475 4V42.8878C91.475 45.097 93.2659 46.8878 95.475 46.8878H134.334C136.543 46.8878 138.334 45.097 138.334 42.8878V4C138.334 1.79086 136.543 0 134.334 0H95.475ZM109.146 5.75538C106.956 5.75538 105.18 7.53129 105.18 9.72199C105.18 11.9127 106.956 13.6886 109.146 13.6886H126.053C128.243 13.6886 130.019 11.9127 130.019 9.72199C130.019 7.53129 128.243 5.75538 126.053 5.75538H109.146ZM102.785 19.4996C100.594 19.4996 98.8185 21.2755 98.8185 23.4662C98.8185 25.6569 100.594 27.4329 102.785 27.4329H120.297C122.488 27.4329 124.264 25.6569 124.264 23.4662C124.264 21.2755 122.488 19.4996 120.297 19.4996H102.785ZM106.947 37.2105C106.947 35.0198 108.723 33.2439 110.913 33.2439H127.416C129.606 33.2439 131.382 35.0198 131.382 37.2105C131.382 39.4012 129.606 41.1771 127.416 41.1771H110.913C108.723 41.1771 106.947 39.4012 106.947 37.2105Z" fill="white"/>
</g>
<defs>
<clipPath id="clip0_5_27995">
<rect width="259" height="47" fill="white"/>
</clipPath>
</defs>
</svg>
